# xmcd
#
# Track frame offsets:
#	150
#	12793
#	29031
#	40685
#	52414
#	63219
#	76831
#	92009
#	105868
#	119964
#	131682
#	146032
#	156955
#	172352
#	185859
#	200416
#	210808
#	221867
#	235591
#	249191
#	262161
#	275352
#	287627
#	303248
#	317162
#
# Disc length: 4402
#
# Revision: 2
# Processed by: cddbd v1.5.1PL0 Copyright (c) Steve Scherf et al.
# Submitted via: CDex 1.51
# Normalized: r0:TDELIM( - ),TSWAP
#
DISCID=77113019
DTITLE=Various Artist - Jazz Station 3
DYEAR=2001
DGENRE=Jazz
TTITLE0=Dinah Washington - Mad About The Boy
TTITLE1=Nina Simone - My Baby Just Cares For Me
TTITLE2=Louis Prima and Keely Smith - I've Got You Under My Skin
TTITLE3=Nat King Cole - Love Is A Many Splendoured Thing
TTITLE4=Lionel Hampton and Dinah Washington - Close To You
TTITLE5=Tony Bennett - I've Grown Accustomed To Her Face
TTITLE6=Peggy Lee - September In The Rain
TTITLE7=Lena Horne - More Than You Know
TTITLE8=Billie Holiday - Carelessly
TTITLE9=Lionel Hampton and Dinah Washington - Willow Weep For Me
TTITLE10=Sarah Vaughan - Summertime
TTITLE11=Nina Simone - I Loves You Porgy
TTITLE12=Dinah Washington - Smoke Gets In Your Eyes
TTITLE13=Louis Armstrong - A Kiss To Build A Dream On
TTITLE14=Benny Goodman - Stompin' At The Savoy
TTITLE15=Carmen McRae - Black Magic
TTITLE16=Al Jarreau - Call Me
TTITLE17=Mel Torne - They Can't Take That Away From Me
TTITLE18=Duke Ellington - I Don't Mean A Thing (If It Ain't Got That Swing)
TTITLE19=Louis Armstrong - I'll See You In My Dreams
TTITLE20=Lena Horne - Honeysuckle Rose
TTITLE21=Glenn Miller - Chattanooga Choo Choo
TTITLE22=Billie Holiday - Fine And Mellow
TTITLE23=Tony Pastor - Frenesi
TTITLE24=Teddy Wilson - I'm Confessin' That I Love You
EXTD=YEAR: 2001
EXTT0=
EXTT1=
EXTT2=
EXTT3=
EXTT4=
EXTT5=
EXTT6=
EXTT7=
EXTT8=
EXTT9=
EXTT10=
EXTT11=
EXTT12=
EXTT13=
EXTT14=
EXTT15=
EXTT16=
EXTT17=
EXTT18=
EXTT19=
EXTT20=
EXTT21=
EXTT22=
EXTT23=
EXTT24=
PLAYORDER=
